<?xml version="1.0" encoding="utf-8"?>
<!-- Generator: Adobe Illustrator 21.0.2, SVG Export Plug-In . SVG Version: 6.00 Build 0)  -->
<svg version="1.1" id="Layer_1" xmlns="http://www.w3.org/2000/svg" xmlns:xlink="http://www.w3.org/1999/xlink" x="0px" y="0px"
	 viewBox="0 0 100 100" style="enable-background:new 0 0 100 100;" xml:space="preserve">
<g>
	<path d="M50,21c-15.4,0-28,12.6-28,28s12.6,28,28,28s28-12.6,28-28S65.4,21,50,21z M50,75c-14.3,0-26-11.7-26-26s11.7-26,26-26
		s26,11.7,26,26S64.3,75,50,75z"/>
	<path d="M57.3,59c-0.5-0.1-1.1,0.2-1.2,0.7c0,0.1-1,3.3-6,3.3c-5,0-6-3.1-6-3.3c-0.1-0.5-0.7-0.8-1.2-0.7c-0.5,0.1-0.9,0.7-0.7,1.2
		c0.1,0.2,1.3,4.8,8,4.8s7.9-4.6,8-4.7C58.1,59.7,57.8,59.2,57.3,59L57.3,59z"/>
	<path d="M42,48c-0.6,0-1,0.4-1,1c0,1.7-1.3,3-3,3s-3-1.3-3-3c0-0.6-0.4-1-1-1s-1,0.4-1,1c0,2.8,2.2,5,5,5s5-2.2,5-5
		C43,48.4,42.6,48,42,48z"/>
	<path d="M66,48c-0.6,0-1,0.4-1,1c0,1.7-1.3,3-3,3s-3-1.3-3-3c0-0.6-0.4-1-1-1s-1,0.4-1,1c0,2.8,2.2,5,5,5c2.8,0,5-2.2,5-5
		C67,48.4,66.6,48,66,48z"/>
</g>
</svg>
