<?xml version="1.0" encoding="utf-8"?>
<!-- Generator: Adobe Illustrator 21.0.2, SVG Export Plug-In . SVG Version: 6.00 Build 0)  -->
<svg version="1.1" id="Layer_1" xmlns="http://www.w3.org/2000/svg" xmlns:xlink="http://www.w3.org/1999/xlink" x="0px" y="0px"
	 viewBox="0 0 100 100" style="enable-background:new 0 0 100 100;" xml:space="preserve">
<g>
	<path d="M50,22c-15.4,0-28,12.6-28,28s12.6,28,28,28s28-12.6,28-28S65.4,22,50,22z M50,76c-14.3,0-26-11.7-26-26s11.7-26,26-26
		s26,11.7,26,26S64.3,76,50,76z"/>
	<path d="M42.7,66c0.5,0.1,1.1-0.2,1.2-0.7c0-0.1,1-3.3,6-3.3c5,0,6,3.1,6,3.3c0.1,0.5,0.7,0.8,1.2,0.7c0.5-0.1,0.9-0.7,0.7-1.2
		c-0.1-0.2-1.3-4.8-8-4.8s-7.9,4.6-8,4.7C41.9,65.3,42.2,65.8,42.7,66L42.7,66z"/>
	<path d="M42,49c-0.6,0-1,0.4-1,1c0,1.7-1.3,3-3,3s-3-1.3-3-3c0-0.6-0.4-1-1-1s-1,0.4-1,1c0,2.8,2.2,5,5,5s5-2.2,5-5
		C43,49.4,42.6,49,42,49z"/>
	<path d="M66,49c-0.6,0-1,0.4-1,1c0,1.7-1.3,3-3,3s-3-1.3-3-3c0-0.6-0.4-1-1-1s-1,0.4-1,1c0,2.8,2.2,5,5,5c2.8,0,5-2.2,5-5
		C67,49.4,66.6,49,66,49z"/>
</g>
</svg>
